#ifndef FONTS_FIXEDSYSEXCELSIOR_BACKSLASH
#define FONTS_FIXEDSYSEXCELSIOR_BACKSLASH

#define backslash_width 9
#define backslash_height 17
static char backslash_bits[] = {
  0x00, 0x00, 0x00, 0x00, 0x00, 0x00, 0x00, 0x00, 0x06, 0x00, 0x06, 0x00, 
  0x0C, 0x00, 0x0C, 0x00, 0x18, 0x00, 0x18, 0x00, 0x30, 0x00, 0x30, 0x00, 
  0x60, 0x00, 0x60, 0x00, 0x00, 0x00, 0x00, 0x00, 0x00, 0x00, };

#endif
