#ifndef FONTS_FIXEDSYSEXCELSIOR_COMMA
#define FONTS_FIXEDSYSEXCELSIOR_COMMA

#define comma_width 9
#define comma_height 17
static char comma_bits[] = {
  0x00, 0x00, 0x00, 0x00, 0x00, 0x00, 0x00, 0x00, 0x00, 0x00, 0x00, 0x00, 
  0x00, 0x00, 0x00, 0x00, 0x00, 0x00, 0x00, 0x00, 0x00, 0x00, 0x38, 0x00, 
  0x38, 0x00, 0x30, 0x00, 0x18, 0x00, 0x00, 0x00, 0x00, 0x00, };

#endif
