#ifndef FONTS_FIXEDSYSEXCELSIOR_DOLLAR
#define FONTS_FIXEDSYSEXCELSIOR_DOLLAR

#define dollar_width 9
#define dollar_height 17
static char dollar_bits[] = {
  0x00, 0x00, 0x00, 0x00, 0x18, 0x00, 0x18, 0x00, 0x3C, 0x00, 0x66, 0x00, 
  0x06, 0x00, 0x0C, 0x00, 0x18, 0x00, 0x30, 0x00, 0x60, 0x00, 0x66, 0x00, 
  0x3C, 0x00, 0x18, 0x00, 0x18, 0x00, 0x00, 0x00, 0x00, 0x00, };

#endif
