#ifndef FONTS_FIXEDSYSEXCELSIOR_DOT
#define FONTS_FIXEDSYSEXCELSIOR_DOT

#define dot_width 9
#define dot_height 17
static char dot_bits[] = {
  0x00, 0x00, 0x00, 0x00, 0x00, 0x00, 0x00, 0x00, 0x00, 0x00, 0x00, 0x00, 
  0x00, 0x00, 0x00, 0x00, 0x00, 0x00, 0x00, 0x00, 0x00, 0x00, 0x38, 0x00, 
  0x38, 0x00, 0x00, 0x00, 0x00, 0x00, 0x00, 0x00, 0x00, 0x00, };

#endif
