#ifndef FONTS_FIXEDSYSEXCELSIOR_PIPE
#define FONTS_FIXEDSYSEXCELSIOR_PIPE

#define pipe_width 9
#define pipe_height 17
static char pipe_bits[] = {
  0x00, 0x00, 0x00, 0x00, 0x00, 0x00, 0x00, 0x00, 0x18, 0x00, 0x18, 0x00, 
  0x18, 0x00, 0x18, 0x00, 0x18, 0x00, 0x18, 0x00, 0x18, 0x00, 0x18, 0x00, 
  0x18, 0x00, 0x18, 0x00, 0x18, 0x00, 0x18, 0x00, 0x00, 0x00, };

#endif
