#ifndef FONTS_FIXEDSYSEXCELSIOR_SLASH
#define FONTS_FIXEDSYSEXCELSIOR_SLASH

#define slash_width 9
#define slash_height 17
static char slash_bits[] = {
  0x00, 0x00, 0x00, 0x00, 0x00, 0x00, 0x00, 0x00, 0x60, 0x00, 0x60, 0x00, 
  0x30, 0x00, 0x30, 0x00, 0x18, 0x00, 0x18, 0x00, 0x0C, 0x00, 0x0C, 0x00, 
  0x06, 0x00, 0x06, 0x00, 0x00, 0x00, 0x00, 0x00, 0x00, 0x00, };

#endif
